<svg width="83" height="32" viewBox="0 0 83 32" fill="none" xmlns="http://www.w3.org/2000/svg">
<g clip-path="url(#clip0_1_2)">
<path fill-rule="evenodd" clip-rule="evenodd" d="M54.5106 11.0775C60.6635 11.0775 65.5878 15.1796 65.5878 21.5388C65.5878 27.8977 60.6635 32 54.5106 32C48.3556 32 43.4328 27.8977 43.4328 21.5388C43.4328 15.1796 48.3556 11.0775 54.5106 11.0775ZM54.5106 26.5852C57.5873 26.5852 59.4341 24.5334 59.4341 21.5388C59.4341 18.5435 57.5873 16.4927 54.5106 16.4927C51.4323 16.4927 49.5876 18.5435 49.5876 21.5388C49.5876 24.5334 51.4323 26.5852 54.5106 26.5852Z" fill="#FF0000"/>
<path d="M0 11.5695H6.15408V31.5086H0V11.5695Z" fill="#FF0000"/>
<path d="M9.43881 11.5693H15.3467V13.401C15.3467 13.401 16.3728 11.0776 21.2545 11.077C27.4902 11.0765 28.6394 15.1793 28.6394 20.5136V31.5081H22.486V21.7439C22.486 19.4461 22.4447 16.4927 19.2853 16.4927C16.0849 16.4927 15.5929 18.9951 15.5929 21.58V31.5081H9.43881V11.5693Z" fill="#FF0000"/>
<path d="M39.7191 0C33.0319 0 31.9245 3.69176 31.9245 8.04105L31.9244 31.5079H38.0785V16.4927H42.632V11.5691H38.0785V8.41038C38.0785 5.78476 39.0628 5.16906 41.0318 5.16906C41.7705 5.16906 42.3443 5.33281 43.0422 5.57933L43.3298 0.369326C42.1815 0.0815736 40.9495 0 39.7191 0Z" fill="#FF0000"/>
<path d="M74.1523 11.5693H67.9987V31.5081H74.1523V23.3985C74.1523 19.4199 74.7274 16.0548 79.4043 16.0548C80.3066 16.0548 81.1679 16.2186 82.03 16.4648V11.0629C75.7579 10.7934 74.1523 13.312 74.1523 13.312V11.5693Z" fill="#FF0000"/>
<path d="M5.34058e-05 4.99841L6.15399 0.781971V8.285H5.34058e-05V4.99841Z" fill="#FF0000"/>
<path fill-rule="evenodd" clip-rule="evenodd" d="M76.4786 29.278L76.4567 30.7389L76.7517 30.7434L76.7593 30.2396L77.0544 30.244L77.2987 30.7516L77.6298 30.7565L77.3077 30.1542C77.3897 30.1267 77.4552 30.0773 77.5042 30.006C77.5534 29.93 77.5786 29.8488 77.5799 29.7624C77.5825 29.5897 77.5291 29.4689 77.4197 29.4001C77.3105 29.3265 77.1791 29.2885 77.0255 29.2862L76.4786 29.278ZM76.9499 30.0121L76.7627 30.0093L76.77 29.5271L76.9715 29.5301C77.0818 29.5318 77.1583 29.5545 77.2008 29.5984C77.2433 29.6422 77.2641 29.7001 77.263 29.772C77.2606 29.9352 77.1562 30.0152 76.9499 30.0121Z" fill="#FF0000"/>
<path fill-rule="evenodd" clip-rule="evenodd" d="M76.2905 31.2619C76.495 31.385 76.7196 31.4483 76.9643 31.452C77.2138 31.4557 77.4426 31.3992 77.6507 31.2823C77.8588 31.1655 78.0244 31.0024 78.1475 30.7931C78.2755 30.5791 78.3416 30.3329 78.3457 30.0546C78.35 29.7715 78.2913 29.5235 78.1697 29.3105C78.053 29.0976 77.8923 28.9297 77.6878 28.8066C77.4833 28.6836 77.2563 28.6202 77.0068 28.6165C76.7621 28.6128 76.5357 28.6694 76.3276 28.7862C76.1195 28.9031 75.9514 29.0661 75.8235 29.2754C75.7004 29.4847 75.6367 29.7309 75.6325 30.0139C75.6283 30.2922 75.6846 30.5402 75.8013 30.7579C75.9229 30.9709 76.0859 31.1389 76.2905 31.2619ZM77.5102 31.0499C77.3504 31.1435 77.1698 31.1887 76.9683 31.1857C76.7667 31.1827 76.5851 31.132 76.4234 31.0336C76.2666 30.9352 76.1414 30.799 76.048 30.6248C75.9596 30.446 75.917 30.2438 75.9204 30.0183C75.9238 29.7928 75.9723 29.5943 76.0661 29.423C76.1647 29.2469 76.2939 29.1121 76.4537 29.0185C76.6183 28.9202 76.8014 28.8725 77.0029 28.8755C77.2044 28.8786 77.3836 28.9316 77.5404 29.0348C77.7021 29.1332 77.8296 29.2719 77.9229 29.4508C78.0163 29.625 78.0612 29.8248 78.0579 30.0503C78.0545 30.2758 78.0035 30.4766 77.9049 30.6527C77.8063 30.824 77.6748 30.9564 77.5102 31.0499Z" fill="#FF0000"/>
</g>
<defs>
<clipPath id="clip0_1_2">
<rect width="83" height="32" fill="white"/>
</clipPath>
</defs>
</svg>
