<svg width="301" height="229" viewBox="0 0 301 229" fill="none" xmlns="http://www.w3.org/2000/svg">
<g clip-path="url(#clip0_8801_53071)">
<path d="M-0.00390625 -24.3039L-0.00390625 246.27C-0.00390625 254.219 6.44066 260.664 14.3904 260.664H286.627C294.577 260.664 301.022 254.219 301.022 246.27V-24.3039C301.022 -32.2537 294.577 -38.6982 286.627 -38.6982H14.3904C6.44066 -38.6982 -0.00390625 -32.2537 -0.00390625 -24.3039Z" fill="white"/>
<path d="M167.869 35.6966L171.94 35.7715L182.996 24.7159L183.532 20.0342C174.747 12.2216 163.188 7.46094 150.536 7.46094C127.622 7.46094 108.292 23.0444 102.559 44.1702C103.769 43.3345 106.342 43.9582 106.342 43.9582L128.437 40.3284C128.437 40.3284 129.58 38.4491 130.146 38.5655C135.202 33.0356 142.469 29.5555 150.531 29.5555C157.092 29.5555 163.125 31.859 167.869 35.6966Z" fill="#EA4335"/>
<path d="M198.512 44.1969C195.947 34.7255 190.65 26.3683 183.515 20.0234L167.853 35.6859C174.122 40.7543 178.143 48.5003 178.143 57.1693V59.9301C185.756 59.9301 191.951 66.1252 191.951 73.7382C191.951 81.3511 185.756 87.5463 178.139 87.5463H150.523L147.758 90.3237V106.897L150.523 109.645H178.139C197.934 109.645 214.042 93.5377 214.042 73.7423C214.042 61.5017 207.88 50.679 198.504 44.1969H198.512Z" fill="#4285F4"/>
<path d="M122.914 109.646H150.509V87.5515H122.918C120.889 87.5515 118.968 87.1025 117.23 86.3125L113.251 87.5307L102.191 98.5905L101.223 102.324C107.256 106.914 114.773 109.646 122.918 109.65L122.914 109.646Z" fill="#34A853"/>
<path d="M122.914 37.8359C103.119 37.8359 87.0117 53.9433 87.0117 73.7386C87.0117 85.3971 92.5998 95.7667 101.231 102.332L117.247 86.316C112.453 84.1456 109.106 79.3309 109.106 73.7386C109.106 66.1257 115.301 59.9305 122.914 59.9305C128.507 59.9305 133.326 63.2776 135.492 68.0715L151.508 52.0556C144.947 43.424 134.573 37.8359 122.914 37.8359Z" fill="#FBBC05"/>
<path d="M91.7578 215.647V189.133H100.942C102.127 189.133 103.246 189.332 104.294 189.723C105.341 190.118 106.26 190.675 107.05 191.391C107.84 192.106 108.464 192.966 108.921 193.964C109.379 194.962 109.607 196.068 109.607 197.278C109.607 198.488 109.379 199.556 108.921 200.554C108.464 201.552 107.84 202.413 107.05 203.128C106.26 203.843 105.341 204.4 104.294 204.795C103.246 205.19 102.127 205.386 100.942 205.386H95.9447V215.643H91.762L91.7578 215.647ZM101.051 201.39C101.741 201.39 102.36 201.274 102.901 201.037C103.445 200.804 103.899 200.488 104.273 200.093C104.643 199.698 104.926 199.253 105.125 198.758C105.321 198.263 105.42 197.773 105.42 197.278C105.42 196.758 105.321 196.255 105.125 195.76C104.926 195.266 104.643 194.829 104.273 194.446C103.903 194.064 103.445 193.748 102.901 193.503C102.356 193.257 101.741 193.133 101.051 193.133H95.9406V201.39H101.051Z" fill="#5F6368"/>
<path d="M123.402 213.428H123.181C122.637 214.144 121.934 214.792 121.069 215.374C120.204 215.952 119.107 216.243 117.772 216.243C116.807 216.243 115.909 216.089 115.069 215.782C114.23 215.474 113.502 215.042 112.887 214.484C112.271 213.927 111.781 213.275 111.423 212.522C111.066 211.769 110.887 210.938 110.887 210.023C110.887 209.059 111.078 208.198 111.46 207.433C111.843 206.668 112.375 206.027 113.053 205.508C113.731 204.988 114.541 204.589 115.477 204.306C116.417 204.023 117.427 203.882 118.512 203.882C119.722 203.882 120.732 203.998 121.547 204.235C122.362 204.468 122.978 204.685 123.398 204.884V204.181C123.398 203.637 123.281 203.134 123.044 202.664C122.811 202.194 122.487 201.795 122.08 201.462C121.672 201.13 121.211 200.872 120.691 200.685C120.171 200.498 119.631 200.406 119.061 200.406C118.146 200.406 117.327 200.585 116.6 200.942C115.872 201.3 115.223 201.874 114.654 202.664L111.394 200.514C112.259 199.329 113.332 198.435 114.616 197.828C115.901 197.225 117.356 196.922 118.986 196.922C121.676 196.922 123.755 197.587 125.227 198.922C126.695 200.256 127.431 202.157 127.431 204.626V215.661H123.393V213.441L123.402 213.428ZM123.402 208.098C122.857 207.778 122.254 207.52 121.589 207.321C120.924 207.125 120.159 207.025 119.294 207.025C118.009 207.025 116.986 207.321 116.221 207.915C115.456 208.51 115.074 209.225 115.074 210.065C115.074 210.51 115.173 210.896 115.369 211.233C115.564 211.566 115.818 211.857 116.13 212.102C116.437 212.347 116.795 212.534 117.202 212.659C117.61 212.784 118.022 212.846 118.441 212.846C119.107 212.846 119.743 212.717 120.35 212.455C120.953 212.198 121.481 211.853 121.926 211.42C122.371 210.988 122.728 210.489 122.998 209.919C123.269 209.35 123.406 208.747 123.406 208.106L123.402 208.098Z" fill="#5F6368"/>
<path d="M134.997 200.547H135.218C135.712 199.512 136.457 198.71 137.459 198.14C138.456 197.57 139.562 197.288 140.772 197.288C141.167 197.288 141.458 197.3 141.641 197.325C141.824 197.35 142.016 197.387 142.215 197.437V201.587C141.945 201.487 141.679 201.42 141.421 201.383C141.163 201.346 140.822 201.329 140.402 201.329C138.847 201.329 137.596 201.803 136.644 202.755C135.692 203.707 135.218 204.959 135.218 206.514V215.956H131.105V197.811H134.993V200.551L134.997 200.547ZM147.774 201.138H144.589V197.508H147.774V191.953H151.886V197.508H156.368V201.138H151.886V209.428C151.886 209.886 151.936 210.306 152.036 210.684C152.136 211.067 152.281 211.383 152.481 211.636C152.901 212.118 153.433 212.36 154.073 212.36C154.468 212.36 154.776 212.331 155 212.268C155.221 212.206 155.458 212.114 155.703 211.99L156.963 215.619C156.443 215.815 155.903 215.973 155.333 216.081C154.763 216.193 154.123 216.247 153.408 216.247C152.543 216.247 151.778 216.11 151.113 215.831C150.448 215.553 149.866 215.179 149.371 214.7C148.31 213.615 147.778 212.143 147.778 210.281V201.142L147.774 201.138Z" fill="#5F6368"/>
<path d="M163.161 199.957H163.381C163.926 199.092 164.695 198.373 165.697 197.791C166.695 197.213 167.826 196.922 169.086 196.922C171.381 196.922 173.098 197.608 174.233 198.976C175.368 200.348 175.938 202.165 175.938 204.439V215.661H171.826V204.996C171.826 203.416 171.46 202.31 170.732 201.683C170.005 201.055 169.048 200.739 167.863 200.739C167.148 200.739 166.516 200.888 165.976 201.184C165.431 201.479 164.961 201.882 164.57 202.385C164.176 202.892 163.88 203.47 163.681 204.127C163.481 204.78 163.386 205.466 163.386 206.181V215.661H159.273V197.516H163.161V199.961V199.957Z" fill="#5F6368"/>
<path d="M196.307 211.321C195.541 212.726 194.456 213.903 193.047 214.838C191.641 215.778 189.912 216.244 187.862 216.244C186.502 216.244 185.251 216.003 184.103 215.52C182.956 215.038 181.962 214.364 181.122 213.504C180.282 212.639 179.63 211.62 179.16 210.448C178.69 209.275 178.457 207.986 178.457 206.577C178.457 205.267 178.677 204.028 179.122 202.856C179.567 201.683 180.191 200.66 180.993 199.783C181.796 198.906 182.765 198.207 183.9 197.692C185.035 197.176 186.295 196.914 187.675 196.914C189.055 196.914 190.336 197.147 191.434 197.617C192.531 198.087 193.463 198.739 194.228 199.579C194.993 200.419 195.579 201.429 195.986 202.614C196.394 203.799 196.598 205.097 196.598 206.502V206.835C196.573 206.959 196.56 207.067 196.56 207.167C196.535 207.267 196.523 207.367 196.523 207.462H182.561C182.636 208.327 182.844 209.08 183.189 209.72C183.534 210.36 183.958 210.893 184.465 211.313C184.972 211.732 185.534 212.04 186.149 212.24C186.764 212.439 187.371 212.535 187.962 212.535C189.147 212.535 190.12 212.252 190.889 211.683C191.654 211.113 192.282 210.41 192.777 209.57L196.294 211.313L196.307 211.321ZM192.494 204.323C192.444 203.953 192.327 203.542 192.14 203.084C191.957 202.627 191.671 202.207 191.288 201.824C190.906 201.442 190.411 201.113 189.808 200.843C189.201 200.573 188.469 200.436 187.604 200.436C186.419 200.436 185.401 200.789 184.548 201.492C183.696 202.194 183.122 203.138 182.827 204.323H192.494Z" fill="#5F6368"/>
<path d="M199.332 197.512H203.22V200.252H203.44C203.661 199.782 203.964 199.346 204.347 198.938C204.729 198.531 205.162 198.186 205.644 197.899C206.126 197.612 206.629 197.379 207.161 197.196C207.694 197.013 208.205 196.922 208.7 196.922C209.29 196.922 209.797 196.98 210.217 197.088C210.637 197.2 211.02 197.354 211.365 197.55L210.18 201.292C209.91 201.167 209.606 201.076 209.274 201.013C208.941 200.951 208.538 200.922 208.072 200.922C207.407 200.922 206.796 201.059 206.238 201.333C205.681 201.608 205.195 201.978 204.775 202.448C204.355 202.917 204.026 203.479 203.794 204.123C203.561 204.768 203.44 205.45 203.44 206.169V215.661H199.328V197.516L199.332 197.512Z" fill="#5F6368"/>
<path d="M78.5611 162.436C78.5611 165.655 77.6048 168.216 75.6963 170.124C73.5509 172.399 70.7319 173.534 67.2394 173.534C63.7468 173.534 61.065 172.378 58.7491 170.062C56.4332 167.746 55.2773 164.894 55.2773 161.505C55.2773 158.116 56.4332 155.264 58.7491 152.948C61.065 150.632 63.8965 149.477 67.2394 149.477C68.9316 149.477 70.5282 149.776 72.0292 150.379C73.5301 150.978 74.765 151.826 75.7296 152.919L73.6091 155.044C72.9023 154.187 71.9834 153.518 70.8608 153.036C69.734 152.553 68.5283 152.312 67.2435 152.312C64.7364 152.312 62.6117 153.181 60.8738 154.919C59.1566 156.678 58.3001 158.873 58.3001 161.513C58.3001 164.154 59.1566 166.349 60.8738 168.108C62.6117 169.846 64.7322 170.715 67.2435 170.715C69.5386 170.715 71.4471 170.07 72.9688 168.785C74.4906 167.501 75.372 165.729 75.6049 163.48H67.2435V160.715H78.4031C78.5112 161.314 78.5652 161.896 78.5652 162.453L78.5611 162.436Z" fill="#5F6368"/>
<path d="M80.582 165.148C80.582 162.724 81.3429 160.72 82.8647 159.136C84.4072 157.548 86.3489 156.758 88.6856 156.758C91.0223 156.758 92.9515 157.552 94.4733 159.136C96.0158 160.724 96.7892 162.728 96.7892 165.148C96.7892 167.568 96.0158 169.597 94.4733 171.16C92.9515 172.749 91.0223 173.539 88.6856 173.539C86.3489 173.539 84.4072 172.745 82.8647 171.16C81.3429 169.572 80.582 167.568 80.582 165.148ZM83.5424 165.148C83.5424 166.841 84.0372 168.213 85.0226 169.265C86.008 170.316 87.2304 170.84 88.6898 170.84C90.1492 170.84 91.3715 170.316 92.3569 169.265C93.3423 168.213 93.8371 166.841 93.8371 165.148C93.8371 163.456 93.3423 162.113 92.3569 161.065C91.3508 159.993 90.1284 159.456 88.6898 159.456C87.2512 159.456 86.0329 159.993 85.0226 161.065C84.0372 162.117 83.5424 163.477 83.5424 165.148Z" fill="#5F6368"/>
<path d="M98.6016 165.148C98.6016 162.724 99.3624 160.72 100.884 159.136C102.427 157.548 104.368 156.758 106.705 156.758C109.042 156.758 110.971 157.552 112.493 159.136C114.035 160.724 114.809 162.728 114.809 165.148C114.809 167.568 114.035 169.597 112.493 171.16C110.971 172.749 109.042 173.539 106.705 173.539C104.368 173.539 102.427 172.745 100.884 171.16C99.3624 169.572 98.6016 167.568 98.6016 165.148ZM101.562 165.148C101.562 166.841 102.057 168.213 103.042 169.265C104.028 170.316 105.25 170.84 106.709 170.84C108.169 170.84 109.391 170.316 110.376 169.265C111.362 168.213 111.857 166.841 111.857 165.148C111.857 163.456 111.362 162.113 110.376 161.065C109.37 159.993 108.148 159.456 106.709 159.456C105.271 159.456 104.052 159.993 103.042 161.065C102.057 162.117 101.562 163.477 101.562 165.148Z" fill="#5F6368"/>
<path d="M124.489 180.491C123.607 180.491 122.784 180.378 122.011 180.154C121.237 179.929 120.535 179.613 119.903 179.206C119.271 178.798 118.73 178.316 118.277 177.759C117.828 177.202 117.483 176.578 117.246 175.892L120.044 174.736C120.364 175.659 120.921 176.399 121.715 176.956C122.51 177.514 123.428 177.792 124.48 177.792C126.089 177.792 127.341 177.31 128.243 176.345C129.145 175.381 129.594 174.05 129.594 172.358V170.844H129.466C128.908 171.68 128.152 172.341 127.2 172.824C126.243 173.306 125.212 173.547 124.098 173.547C122.04 173.547 120.269 172.745 118.792 171.136C117.333 169.485 116.605 167.489 116.605 165.152C116.605 162.816 117.333 160.832 118.792 159.203C120.273 157.573 122.04 156.758 124.098 156.758C125.212 156.758 126.247 156.999 127.2 157.481C128.152 157.964 128.908 158.625 129.466 159.46H129.594V157.273H132.426V172.358C132.426 174.886 131.707 176.869 130.272 178.308C128.813 179.767 126.884 180.495 124.485 180.495L124.489 180.491ZM124.584 170.84C126.044 170.84 127.233 170.316 128.156 169.265C129.12 168.213 129.603 166.841 129.603 165.148C129.603 163.456 129.12 162.138 128.156 161.065C127.212 159.993 126.023 159.456 124.584 159.456C123.146 159.456 121.982 159.993 121.013 161.065C120.048 162.138 119.566 163.498 119.566 165.148C119.566 166.799 120.048 168.183 121.013 169.231C121.977 170.304 123.166 170.84 124.584 170.84Z" fill="#5F6368"/>
<path d="M138.988 149.992V173.018H136.027V149.992H138.988Z" fill="#5F6368"/>
<path d="M149.502 173.543C147.186 173.543 145.278 172.749 143.777 171.165C142.276 169.576 141.527 167.572 141.527 165.152C141.527 162.733 142.255 160.753 143.714 159.153C145.174 157.556 147.036 156.758 149.311 156.758C151.585 156.758 153.506 157.515 154.891 159.024C156.275 160.537 156.965 162.654 156.965 165.377L156.932 165.697H144.55C144.592 167.24 145.107 168.483 146.093 169.427C147.078 170.37 148.259 170.84 149.631 170.84C151.519 170.84 152.995 169.896 154.067 168.009L156.703 169.294C155.997 170.624 155.015 171.664 153.76 172.412C152.504 173.16 151.086 173.539 149.498 173.539L149.502 173.543ZM144.775 163.252H153.814C153.726 162.159 153.281 161.252 152.479 160.533C151.677 159.814 150.596 159.456 149.248 159.456C148.134 159.456 147.174 159.801 146.371 160.487C145.569 161.173 145.037 162.096 144.779 163.252H144.775Z" fill="#5F6368"/>
<path d="M177.451 173.534C174.041 173.534 171.189 172.386 168.894 170.091C166.619 167.796 165.484 164.935 165.484 161.505C165.484 158.075 166.619 155.223 168.894 152.948C171.168 150.632 174.016 149.477 177.451 149.477C180.885 149.477 183.741 150.732 185.908 153.239L183.787 155.297C182.136 153.302 180.024 152.308 177.451 152.308C174.877 152.308 172.765 153.165 171.052 154.882C169.359 156.574 168.511 158.786 168.511 161.505C168.511 164.224 169.359 166.436 171.052 168.129C172.765 169.846 174.902 170.702 177.451 170.702C180.132 170.702 182.457 169.575 184.432 167.326L186.585 169.417C185.492 170.727 184.153 171.737 182.565 172.457C180.976 173.176 179.272 173.534 177.451 173.534Z" fill="#5F6368"/>
<path d="M192.187 149.992V173.018H189.227V149.992H192.187Z" fill="#5F6368"/>
<path d="M194.727 165.148C194.727 162.724 195.487 160.72 197.009 159.136C198.552 157.548 200.493 156.758 202.83 156.758C205.167 156.758 207.096 157.552 208.618 159.136C210.16 160.724 210.934 162.728 210.934 165.148C210.934 167.568 210.16 169.597 208.618 171.16C207.096 172.749 205.167 173.539 202.83 173.539C200.493 173.539 198.552 172.745 197.009 171.16C195.487 169.572 194.727 167.568 194.727 165.148ZM197.687 165.148C197.687 166.841 198.182 168.213 199.167 169.265C200.153 170.316 201.375 170.84 202.834 170.84C204.294 170.84 205.516 170.316 206.501 169.265C207.487 168.213 207.982 166.841 207.982 165.148C207.982 163.456 207.487 162.113 206.501 161.065C205.495 159.993 204.273 159.456 202.834 159.456C201.396 159.456 200.177 159.993 199.167 161.065C198.182 162.117 197.687 163.477 197.687 165.148Z" fill="#5F6368"/>
<path d="M227.302 173.02H224.47V170.833H224.341C223.892 171.606 223.198 172.246 222.266 172.762C221.335 173.277 220.362 173.535 219.356 173.535C217.427 173.535 215.942 172.982 214.903 171.88C213.863 170.774 213.344 169.207 213.344 167.17V157.266H216.304V166.978C216.366 169.552 217.664 170.837 220.196 170.837C221.377 170.837 222.362 170.359 223.156 169.406C223.95 168.454 224.345 167.311 224.345 165.98V157.266H227.306V173.024L227.302 173.02Z" fill="#5F6368"/>
<path d="M237.34 173.534C235.282 173.534 233.511 172.719 232.035 171.089C230.575 169.438 229.848 167.455 229.848 165.139C229.848 162.823 230.575 160.84 232.035 159.189C233.515 157.559 235.282 156.744 237.34 156.744C238.496 156.744 239.552 156.99 240.508 157.485C241.46 157.979 242.196 158.632 242.712 159.447H242.841L242.712 157.26V149.992H245.672V173.018H242.841V170.831H242.712C242.196 171.646 241.465 172.299 240.508 172.794C239.552 173.288 238.5 173.534 237.34 173.534ZM237.822 170.831C239.282 170.831 240.471 170.307 241.394 169.255C242.359 168.203 242.841 166.831 242.841 165.139C242.841 163.447 242.359 162.129 241.394 161.056C240.45 159.983 239.261 159.447 237.822 159.447C236.384 159.447 235.22 159.983 234.251 161.056C233.286 162.129 232.804 163.488 232.804 165.139C232.804 166.79 233.286 168.174 234.251 169.222C235.215 170.295 236.405 170.831 237.822 170.831Z" fill="#5F6368"/>
</g>
<defs>
<clipPath id="clip0_8801_53071">
<rect width="301" height="229" fill="white"/>
</clipPath>
</defs>
</svg>
