<svg width="302" height="300" viewBox="0 0 302 300" fill="none" xmlns="http://www.w3.org/2000/svg">
<g clip-path="url(#clip0_8788_53134)">
<path d="M0.484375 14.6961L0.484375 285.27C0.484375 293.219 6.92894 299.664 14.8787 299.664H287.115C295.065 299.664 301.51 293.219 301.51 285.27V14.6961C301.51 6.74631 295.065 0.301758 287.115 0.301758H14.8787C6.92894 0.301758 0.484375 6.74631 0.484375 14.6961Z" fill="white"/>
<path d="M168.358 74.6966L172.428 74.7715L183.484 63.7159L184.02 59.0342C175.235 51.2216 163.676 46.4609 151.024 46.4609C128.11 46.4609 108.78 62.0444 103.047 83.1702C104.257 82.3345 106.83 82.9582 106.83 82.9582L128.925 79.3284C128.925 79.3284 130.068 77.4491 130.634 77.5655C135.69 72.0356 142.958 68.5555 151.02 68.5555C157.581 68.5555 163.614 70.859 168.358 74.6966Z" fill="#EA4335"/>
<path d="M199 83.1969C196.435 73.7255 191.138 65.3683 184.003 59.0234L168.341 74.6859C174.611 79.7543 178.631 87.5003 178.631 96.1693V98.9301C186.244 98.9301 192.439 105.125 192.439 112.738C192.439 120.351 186.244 126.546 178.627 126.546H151.011L148.246 129.324V145.897L151.011 148.645H178.627C198.423 148.645 214.53 132.538 214.53 112.742C214.53 100.502 208.368 89.679 198.992 83.1969H199Z" fill="#4285F4"/>
<path d="M123.402 148.646H150.998V126.552H123.406C121.377 126.552 119.456 126.102 117.719 125.312L113.739 126.531L102.68 137.591L101.711 141.324C107.744 145.914 115.261 148.646 123.406 148.65L123.402 148.646Z" fill="#34A853"/>
<path d="M123.403 76.8359C103.607 76.8359 87.5 92.9433 87.5 112.739C87.5 124.397 93.0881 134.767 101.72 141.332L117.736 125.316C112.942 123.146 109.595 118.331 109.595 112.739C109.595 105.126 115.79 98.9305 123.403 98.9305C128.995 98.9305 133.814 102.278 135.98 107.072L151.996 91.0556C145.435 82.424 135.061 76.8359 123.403 76.8359Z" fill="#FBBC05"/>
<path d="M92.2461 254.647V228.133H101.431C102.616 228.133 103.734 228.332 104.782 228.723C105.83 229.118 106.749 229.675 107.539 230.391C108.329 231.106 108.952 231.966 109.41 232.964C109.867 233.962 110.096 235.068 110.096 236.278C110.096 237.488 109.867 238.556 109.41 239.554C108.952 240.552 108.329 241.413 107.539 242.128C106.749 242.843 105.83 243.4 104.782 243.795C103.734 244.19 102.616 244.386 101.431 244.386H96.433V254.643H92.2503L92.2461 254.647ZM101.539 240.39C102.229 240.39 102.849 240.274 103.389 240.037C103.934 239.804 104.387 239.488 104.761 239.093C105.131 238.698 105.414 238.253 105.613 237.758C105.809 237.263 105.909 236.773 105.909 236.278C105.909 235.758 105.809 235.255 105.613 234.76C105.414 234.266 105.131 233.829 104.761 233.446C104.391 233.064 103.934 232.748 103.389 232.503C102.844 232.257 102.229 232.133 101.539 232.133H96.4288V240.39H101.539Z" fill="#5F6368"/>
<path d="M123.89 252.428H123.67C123.125 253.144 122.422 253.792 121.557 254.374C120.693 254.952 119.595 255.243 118.26 255.243C117.296 255.243 116.398 255.089 115.558 254.782C114.718 254.474 113.99 254.042 113.375 253.484C112.76 252.927 112.269 252.275 111.911 251.522C111.554 250.769 111.375 249.938 111.375 249.023C111.375 248.059 111.566 247.198 111.949 246.433C112.331 245.668 112.864 245.027 113.541 244.508C114.219 243.988 115.03 243.589 115.965 243.306C116.905 243.023 117.915 242.882 119 242.882C120.21 242.882 121.221 242.998 122.036 243.235C122.851 243.468 123.466 243.685 123.886 243.884V243.181C123.886 242.637 123.769 242.134 123.532 241.664C123.3 241.194 122.975 240.795 122.568 240.462C122.16 240.13 121.699 239.872 121.179 239.685C120.659 239.498 120.119 239.406 119.549 239.406C118.635 239.406 117.815 239.585 117.088 239.942C116.36 240.3 115.712 240.874 115.142 241.664L111.882 239.514C112.747 238.329 113.82 237.435 115.105 236.828C116.389 236.225 117.845 235.922 119.474 235.922C122.165 235.922 124.243 236.587 125.715 237.922C127.183 239.256 127.919 241.157 127.919 243.626V254.661H123.882V252.441L123.89 252.428ZM123.89 247.098C123.345 246.778 122.742 246.52 122.077 246.321C121.412 246.125 120.647 246.025 119.782 246.025C118.497 246.025 117.475 246.321 116.709 246.915C115.944 247.51 115.562 248.225 115.562 249.065C115.562 249.51 115.662 249.896 115.857 250.233C116.053 250.566 116.306 250.857 116.618 251.102C116.926 251.347 117.283 251.534 117.691 251.659C118.098 251.784 118.51 251.846 118.93 251.846C119.595 251.846 120.231 251.717 120.838 251.455C121.441 251.198 121.969 250.853 122.414 250.42C122.859 249.988 123.216 249.489 123.487 248.919C123.757 248.35 123.894 247.747 123.894 247.106L123.89 247.098Z" fill="#5F6368"/>
<path d="M135.485 239.547H135.706C136.201 238.512 136.945 237.71 137.947 237.14C138.945 236.57 140.051 236.288 141.261 236.288C141.656 236.288 141.947 236.3 142.13 236.325C142.313 236.35 142.504 236.387 142.703 236.437V240.587C142.433 240.487 142.167 240.42 141.909 240.383C141.652 240.346 141.311 240.329 140.891 240.329C139.336 240.329 138.084 240.803 137.132 241.755C136.18 242.707 135.706 243.959 135.706 245.514V254.956H131.594V236.811H135.481V239.551L135.485 239.547ZM148.262 240.138H145.078V236.508H148.262V230.953H152.374V236.508H156.857V240.138H152.374V248.428C152.374 248.886 152.424 249.306 152.524 249.684C152.624 250.067 152.769 250.383 152.969 250.636C153.389 251.118 153.921 251.36 154.562 251.36C154.956 251.36 155.264 251.331 155.489 251.268C155.709 251.206 155.946 251.114 156.191 250.99L157.451 254.619C156.931 254.815 156.391 254.973 155.821 255.081C155.252 255.193 154.611 255.247 153.896 255.247C153.031 255.247 152.266 255.11 151.601 254.831C150.936 254.553 150.354 254.179 149.859 253.7C148.799 252.615 148.267 251.143 148.267 249.281V240.142L148.262 240.138Z" fill="#5F6368"/>
<path d="M163.649 238.957H163.87C164.414 238.092 165.184 237.373 166.186 236.791C167.183 236.213 168.314 235.922 169.574 235.922C171.869 235.922 173.586 236.608 174.722 237.976C175.857 239.348 176.426 241.165 176.426 243.439V254.661H172.314V243.996C172.314 242.416 171.948 241.31 171.221 240.683C170.493 240.055 169.537 239.739 168.352 239.739C167.637 239.739 167.005 239.888 166.464 240.184C165.919 240.479 165.45 240.882 165.059 241.385C164.664 241.892 164.369 242.47 164.169 243.127C163.969 243.78 163.874 244.466 163.874 245.181V254.661H159.762V236.516H163.649V238.961V238.957Z" fill="#5F6368"/>
<path d="M196.795 250.321C196.03 251.726 194.945 252.903 193.535 253.838C192.13 254.778 190.4 255.244 188.35 255.244C186.991 255.244 185.739 255.003 184.592 254.52C183.444 254.038 182.45 253.364 181.61 252.504C180.771 251.639 180.118 250.62 179.648 249.448C179.178 248.275 178.945 246.986 178.945 245.577C178.945 244.267 179.166 243.028 179.611 241.856C180.055 240.683 180.679 239.66 181.482 238.783C182.284 237.906 183.253 237.207 184.388 236.692C185.523 236.176 186.783 235.914 188.163 235.914C189.544 235.914 190.824 236.147 191.922 236.617C193.019 237.087 193.951 237.739 194.716 238.579C195.481 239.419 196.067 240.429 196.475 241.614C196.882 242.799 197.086 244.097 197.086 245.502V245.835C197.061 245.959 197.048 246.067 197.048 246.167C197.023 246.267 197.011 246.367 197.011 246.462H183.049C183.124 247.327 183.332 248.08 183.677 248.72C184.022 249.36 184.446 249.893 184.953 250.313C185.461 250.732 186.022 251.04 186.637 251.24C187.253 251.439 187.86 251.535 188.45 251.535C189.635 251.535 190.608 251.252 191.377 250.683C192.142 250.113 192.77 249.41 193.265 248.57L196.782 250.313L196.795 250.321ZM192.982 243.323C192.932 242.953 192.816 242.542 192.629 242.084C192.446 241.627 192.159 241.207 191.776 240.824C191.394 240.442 190.899 240.113 190.296 239.843C189.689 239.573 188.957 239.436 188.092 239.436C186.908 239.436 185.889 239.789 185.037 240.492C184.184 241.194 183.61 242.138 183.315 243.323H192.982Z" fill="#5F6368"/>
<path d="M199.821 236.512H203.708V239.252H203.928C204.149 238.782 204.452 238.346 204.835 237.938C205.217 237.531 205.65 237.186 206.132 236.899C206.614 236.612 207.118 236.379 207.65 236.196C208.182 236.013 208.693 235.922 209.188 235.922C209.779 235.922 210.286 235.98 210.706 236.088C211.126 236.2 211.508 236.354 211.853 236.55L210.668 240.292C210.398 240.167 210.095 240.076 209.762 240.013C209.429 239.951 209.026 239.922 208.56 239.922C207.895 239.922 207.284 240.059 206.727 240.333C206.17 240.608 205.683 240.978 205.263 241.448C204.843 241.917 204.515 242.479 204.282 243.123C204.049 243.768 203.928 244.45 203.928 245.169V254.661H199.816V236.516L199.821 236.512Z" fill="#5F6368"/>
<path d="M79.0494 201.436C79.0494 204.655 78.0931 207.216 76.1846 209.124C74.0392 211.399 71.2202 212.534 67.7276 212.534C64.2351 212.534 61.5533 211.378 59.2374 209.062C56.9215 206.746 55.7656 203.894 55.7656 200.505C55.7656 197.116 56.9215 194.264 59.2374 191.948C61.5533 189.632 64.3848 188.477 67.7276 188.477C69.4199 188.477 71.0165 188.776 72.5174 189.379C74.0184 189.978 75.2533 190.826 76.2179 191.919L74.0974 194.044C73.3906 193.187 72.4717 192.518 71.3491 192.036C70.2223 191.553 69.0166 191.312 67.7318 191.312C65.2246 191.312 63.1 192.181 61.362 193.919C59.6449 195.678 58.7884 197.873 58.7884 200.513C58.7884 203.154 59.6449 205.349 61.362 207.108C63.1 208.846 65.2205 209.715 67.7318 209.715C70.0269 209.715 71.9353 209.07 73.4571 207.785C74.9789 206.501 75.8603 204.729 76.0932 202.48H67.7318V199.715H78.8914C78.9995 200.314 79.0535 200.896 79.0535 201.453L79.0494 201.436Z" fill="#5F6368"/>
<path d="M81.0703 204.148C81.0703 201.724 81.8312 199.72 83.3529 198.136C84.8955 196.548 86.8372 195.758 89.1739 195.758C91.5106 195.758 93.4398 196.552 94.9616 198.136C96.5041 199.724 97.2775 201.728 97.2775 204.148C97.2775 206.568 96.5041 208.597 94.9616 210.16C93.4398 211.749 91.5106 212.539 89.1739 212.539C86.8372 212.539 84.8955 211.745 83.3529 210.16C81.8312 208.572 81.0703 206.568 81.0703 204.148ZM84.0307 204.148C84.0307 205.841 84.5254 207.213 85.5109 208.265C86.4963 209.316 87.7187 209.84 89.178 209.84C90.6374 209.84 91.8598 209.316 92.8452 208.265C93.8306 207.213 94.3254 205.841 94.3254 204.148C94.3254 202.456 93.8306 201.113 92.8452 200.065C91.839 198.993 90.6166 198.456 89.178 198.456C87.7394 198.456 86.5212 198.993 85.5109 200.065C84.5254 201.117 84.0307 202.477 84.0307 204.148Z" fill="#5F6368"/>
<path d="M99.0898 204.148C99.0898 201.724 99.8507 199.72 101.372 198.136C102.915 196.548 104.857 195.758 107.193 195.758C109.53 195.758 111.459 196.552 112.981 198.136C114.524 199.724 115.297 201.728 115.297 204.148C115.297 206.568 114.524 208.597 112.981 210.16C111.459 211.749 109.53 212.539 107.193 212.539C104.857 212.539 102.915 211.745 101.372 210.16C99.8507 208.572 99.0898 206.568 99.0898 204.148ZM102.05 204.148C102.05 205.841 102.545 207.213 103.53 208.265C104.516 209.316 105.738 209.84 107.198 209.84C108.657 209.84 109.879 209.316 110.865 208.265C111.85 207.213 112.345 205.841 112.345 204.148C112.345 202.456 111.85 201.113 110.865 200.065C109.859 198.993 108.636 198.456 107.198 198.456C105.759 198.456 104.541 198.993 103.53 200.065C102.545 201.117 102.05 202.477 102.05 204.148Z" fill="#5F6368"/>
<path d="M124.977 219.491C124.095 219.491 123.272 219.378 122.499 219.154C121.726 218.929 121.023 218.613 120.391 218.206C119.759 217.798 119.218 217.316 118.765 216.759C118.316 216.202 117.971 215.578 117.734 214.892L120.532 213.736C120.852 214.659 121.41 215.399 122.204 215.956C122.998 216.514 123.917 216.792 124.969 216.792C126.578 216.792 127.829 216.31 128.731 215.345C129.634 214.381 130.083 213.05 130.083 211.358V209.844H129.954C129.397 210.68 128.64 211.341 127.688 211.824C126.732 212.306 125.7 212.547 124.586 212.547C122.528 212.547 120.757 211.745 119.281 210.136C117.821 208.485 117.094 206.489 117.094 204.152C117.094 201.816 117.821 199.832 119.281 198.203C120.761 196.573 122.528 195.758 124.586 195.758C125.7 195.758 126.736 195.999 127.688 196.481C128.64 196.964 129.397 197.625 129.954 198.46H130.083V196.273H132.914V211.358C132.914 213.886 132.195 215.869 130.76 217.308C129.301 218.767 127.372 219.495 124.973 219.495L124.977 219.491ZM125.073 209.84C126.532 209.84 127.721 209.316 128.644 208.265C129.609 207.213 130.091 205.841 130.091 204.148C130.091 202.456 129.609 201.138 128.644 200.065C127.7 198.993 126.511 198.456 125.073 198.456C123.634 198.456 122.47 198.993 121.501 200.065C120.536 201.138 120.054 202.498 120.054 204.148C120.054 205.799 120.536 207.183 121.501 208.231C122.466 209.304 123.655 209.84 125.073 209.84Z" fill="#5F6368"/>
<path d="M139.476 188.992V212.018H136.516V188.992H139.476Z" fill="#5F6368"/>
<path d="M149.99 212.543C147.674 212.543 145.766 211.749 144.265 210.165C142.764 208.576 142.016 206.572 142.016 204.152C142.016 201.733 142.743 199.753 144.203 198.153C145.662 196.556 147.525 195.758 149.799 195.758C152.073 195.758 153.994 196.515 155.379 198.024C156.763 199.537 157.454 201.654 157.454 204.377L157.42 204.697H145.038C145.08 206.24 145.596 207.483 146.581 208.427C147.566 209.37 148.747 209.84 150.119 209.84C152.007 209.84 153.483 208.896 154.556 207.009L157.192 208.294C156.485 209.624 155.504 210.664 154.248 211.412C152.992 212.16 151.574 212.539 149.986 212.539L149.99 212.543ZM145.263 202.252H154.302C154.215 201.159 153.77 200.252 152.967 199.533C152.165 198.814 151.084 198.456 149.737 198.456C148.622 198.456 147.662 198.801 146.859 199.487C146.057 200.173 145.525 201.096 145.267 202.252H145.263Z" fill="#5F6368"/>
<path d="M177.939 212.534C174.529 212.534 171.677 211.386 169.382 209.091C167.108 206.796 165.973 203.935 165.973 200.505C165.973 197.075 167.108 194.223 169.382 191.948C171.656 189.632 174.504 188.477 177.939 188.477C181.373 188.477 184.23 189.732 186.396 192.239L184.275 194.297C182.625 192.302 180.513 191.308 177.939 191.308C175.365 191.308 173.253 192.165 171.54 193.882C169.848 195.574 169 197.786 169 200.505C169 203.224 169.848 205.436 171.54 207.129C173.253 208.846 175.39 209.702 177.939 209.702C180.621 209.702 182.945 208.575 184.92 206.326L187.074 208.417C185.98 209.727 184.641 210.737 183.053 211.457C181.465 212.176 179.76 212.534 177.939 212.534Z" fill="#5F6368"/>
<path d="M192.675 188.992V212.018H189.715V188.992H192.675Z" fill="#5F6368"/>
<path d="M195.215 204.148C195.215 201.724 195.976 199.72 197.497 198.136C199.04 196.548 200.982 195.758 203.318 195.758C205.655 195.758 207.584 196.552 209.106 198.136C210.649 199.724 211.422 201.728 211.422 204.148C211.422 206.568 210.649 208.597 209.106 210.16C207.584 211.749 205.655 212.539 203.318 212.539C200.982 212.539 199.04 211.745 197.497 210.16C195.976 208.572 195.215 206.568 195.215 204.148ZM198.175 204.148C198.175 205.841 198.67 207.213 199.655 208.265C200.641 209.316 201.863 209.84 203.323 209.84C204.782 209.84 206.004 209.316 206.99 208.265C207.975 207.213 208.47 205.841 208.47 204.148C208.47 202.456 207.975 201.113 206.99 200.065C205.984 198.993 204.761 198.456 203.323 198.456C201.884 198.456 200.666 198.993 199.655 200.065C198.67 201.117 198.175 202.477 198.175 204.148Z" fill="#5F6368"/>
<path d="M227.79 212.02H224.958V209.833H224.829C224.38 210.606 223.686 211.246 222.755 211.762C221.823 212.277 220.85 212.535 219.844 212.535C217.915 212.535 216.431 211.982 215.391 210.88C214.352 209.774 213.832 208.207 213.832 206.17V196.266H216.792V205.978C216.855 208.552 218.152 209.837 220.684 209.837C221.865 209.837 222.85 209.359 223.644 208.406C224.439 207.454 224.834 206.311 224.834 204.98V196.266H227.794V212.024L227.79 212.02Z" fill="#5F6368"/>
<path d="M237.828 212.534C235.77 212.534 233.999 211.719 232.523 210.089C231.064 208.438 230.336 206.455 230.336 204.139C230.336 201.823 231.064 199.84 232.523 198.189C234.003 196.559 235.77 195.744 237.828 195.744C238.984 195.744 240.04 195.99 240.997 196.485C241.949 196.979 242.685 197.632 243.2 198.447H243.329L243.2 196.26V188.992H246.161V212.018H243.329V209.831H243.2C242.685 210.646 241.953 211.299 240.997 211.794C240.04 212.288 238.988 212.534 237.828 212.534ZM238.311 209.831C239.77 209.831 240.959 209.307 241.882 208.255C242.847 207.203 243.329 205.831 243.329 204.139C243.329 202.447 242.847 201.129 241.882 200.056C240.938 198.983 239.749 198.447 238.311 198.447C236.872 198.447 235.708 198.983 234.739 200.056C233.774 201.129 233.292 202.488 233.292 204.139C233.292 205.79 233.774 207.174 234.739 208.222C235.704 209.295 236.893 209.831 238.311 209.831Z" fill="#5F6368"/>
</g>
<defs>
<clipPath id="clip0_8788_53134">
<rect width="301.025" height="299.362" fill="white" transform="translate(0.488281 0.320312)"/>
</clipPath>
</defs>
</svg>
